<svg width="21" height="14" viewBox="0 0 21 14" fill="none" xmlns="http://www.w3.org/2000/svg">
<path d="M18.469 12.8499C18.5605 12.9551 18.6681 13.0374 18.7857 13.092C18.9033 13.1466 19.0286 13.1725 19.1545 13.1682C19.2803 13.1639 19.4042 13.1294 19.5191 13.0668C19.634 13.0041 19.7376 12.9146 19.8241 12.8032C19.9105 12.6918 19.9781 12.5608 20.023 12.4176C20.0679 12.2744 20.0891 12.1219 20.0856 11.9687C20.082 11.8155 20.0537 11.6647 20.0022 11.5248C19.9508 11.385 19.8772 11.2588 19.7857 11.1535L11.1607 1.23687C10.9828 1.03208 10.7472 0.917969 10.5024 0.917969C10.2575 0.917969 10.0219 1.03208 9.84399 1.23687L1.21803 11.1535C1.12454 11.2581 1.04904 11.3842 0.995922 11.5246C0.942806 11.665 0.913134 11.8168 0.908627 11.9713C0.904118 12.1257 0.924866 12.2798 0.969664 12.4244C1.01446 12.569 1.08242 12.7013 1.16958 12.8137C1.25675 12.9261 1.36138 13.0162 1.47742 13.079C1.59345 13.1417 1.71856 13.1757 1.84549 13.1791C1.97242 13.1825 2.09863 13.1551 2.2168 13.0986C2.33496 13.0421 2.44272 12.9575 2.53382 12.8499L10.5024 3.6892L18.469 12.8499Z" fill="black"/>
</svg>
