<svg width="21" height="10" viewBox="0 0 21 10" fill="none" xmlns="http://www.w3.org/2000/svg">
<path d="M2.53101 0.331969C2.43952 0.249268 2.33189 0.184617 2.21427 0.141703C2.09666 0.0987882 1.97136 0.078452 1.84553 0.0818576C1.7197 0.0852622 1.5958 0.11234 1.48091 0.161546C1.36602 0.210751 1.26239 0.28112 1.17593 0.368635C1.08947 0.45615 1.02188 0.559098 0.977011 0.671599C0.932146 0.784101 0.910886 0.903953 0.914446 1.02431C0.918005 1.14467 0.946314 1.26318 0.997756 1.37308C1.0492 1.48297 1.12277 1.5821 1.21426 1.6648L9.83926 9.45647C10.0172 9.61737 10.2528 9.70703 10.4976 9.70703C10.7425 9.70703 10.9781 9.61737 11.156 9.45647L19.782 1.6648C19.8755 1.58265 19.951 1.48354 20.0041 1.37324C20.0572 1.26294 20.0869 1.14365 20.0914 1.02229C20.0959 0.900924 20.0751 0.779915 20.0303 0.666288C19.9855 0.552661 19.9176 0.44868 19.8304 0.360386C19.7433 0.272093 19.6386 0.201246 19.5226 0.15196C19.4066 0.102674 19.2814 0.0759328 19.1545 0.0732882C19.0276 0.0706447 18.9014 0.09215 18.7832 0.136557C18.665 0.180964 18.5573 0.247387 18.4662 0.331968L10.4976 7.52963L2.53101 0.331969Z" fill="black"/>
</svg>
