<svg width="46" height="46" viewBox="0 0 46 46" fill="none" xmlns="http://www.w3.org/2000/svg">
<path d="M45.8078 0.595831C45.514 0.099998 44.8765 -0.0625021 44.3807 0.227081C44.2661 0.295831 33.4953 6.69583 22.9994 17.0542C12.5036 6.69583 1.73276 0.295831 1.61817 0.227081C1.12026 -0.0645854 0.482758 0.0979147 0.191091 0.595831C-0.100575 1.08958 0.064008 1.72916 0.559841 2.02291C0.674425 2.08958 11.2328 8.37083 21.5307 18.5333C21.239 18.8333 20.9473 19.1354 20.6578 19.4396C9.51609 31.1604 2.47234 44.2542 2.40359 44.3833C2.13276 44.8896 2.32442 45.5229 2.83276 45.7937C2.98901 45.8771 3.15567 45.9167 3.32234 45.9167C3.69526 45.9167 4.05567 45.7167 4.24109 45.3646C4.30984 45.2354 11.2286 32.3833 22.1661 20.875C22.4432 20.5833 22.7203 20.2958 22.9973 20.0104C23.2744 20.2958 23.5536 20.5833 23.8286 20.875C34.7682 32.3812 41.6848 45.2354 41.7536 45.3646C41.9411 45.7167 42.3015 45.9167 42.6723 45.9167C42.839 45.9167 43.0057 45.8771 43.1619 45.7937C43.6703 45.5229 43.8619 44.8896 43.5911 44.3833C43.5223 44.2542 36.4786 31.1583 25.3369 19.4375C25.0473 19.1312 24.7557 18.8292 24.464 18.5312C34.7661 8.36875 45.3244 2.0875 45.439 2.02083C45.9348 1.72708 46.0994 1.08958 45.8078 0.593748V0.595831Z" fill="#9A0E00"/>
</svg>
